#!OML:ASF H:\ManfredObstacles\Project 1\Capture day 2\Session 1\male.ASF
:FULLY-SPECIFIED
:DEGREES
285
root 1.55077 14.5258 -5.78278 -156.793 -7.22916 171.188
lowerback 1.69696 -6.40548 -9.19191
upperback 1.9177 -8.731 1.79845
thorax 2.71114 -4.60774 6.79447
lowerneck -43.11 0.606658 2.7199
upperneck 31.0206 -0.752717 -0.306949
head 18.8501 0.0619356 -0.77749
rclavicle -3.72721e-015 -3.03147e-015
rhumerus -67.021 -3.92578 -68.4228
rradius 52.6499
rwrist 10.095
rhand -8.96547 -6.6969
rfingers 7.12502
rthumb 16.9797 -35.9747
lclavicle -3.72721e-015 -3.03147e-015
lhumerus -22.3055 -27.3039 88.9962
lradius 95.6333
lwrist -23.156
lhand -15.513 5.98049
lfingers 7.12502
lthumb 10.6699 35.6896
rfemur -72.6282 -7.48524 16.7999
rtibia 73.5026
rfoot -5.973 -21.0909
rtoes -23.7293
lfemur 19.2712 -9.59922 -28.6599
ltibia 2.22639e-014
lfoot 16.9252 5.56376
ltoes -15.2411
286
root 1.56916 14.5155 -6.02256 -156.158 -7.27574 171.069
lowerback 1.54079 -6.75663 -9.08163
upperback 1.62931 -9.18029 1.9536
thorax 2.58954 -4.81025 6.86749
lowerneck -43.1848 1.0014 3.06284
upperneck 30.8339 -0.207994 -0.81422
head 18.7705 0.216219 -0.933692
rclavicle -6.37602e-014 -7.28049e-015
rhumerus -66.7002 -3.14216 -68.9825
rradius 54.1399
rwrist 9.43992
rhand -9.562 -6.47257
rfingers 7.12502
rthumb 16.4054 -35.7988
lclavicle -6.37602e-014 -7.28049e-015
lhumerus -23.1348 -27.1972 88.9652
lradius 95.9072
lwrist -22.9725
lhand -16.0849 6.09607
lfingers 7.12502
lthumb 10.1183 35.8328
rfemur -71.6871 -7.55586 17.1731
rtibia 72.4827
rfoot -3.92372 -20.0265
rtoes -22.465
lfemur 19.1187 -9.67517 -28.4946
ltibia -2.22639e-014
lfoot 18.6856 4.31246
ltoes -15.5197
287
root 1.58487 14.506 -6.26955 -155.47 -7.37649 171.027
lowerback 1.0848 -7.10564 -8.82992
upperback 1.52042 -9.60041 2.09787
thorax 2.79324 -5.01808 6.79656
lowerneck -43.1693 1.51446 3.57369
upperneck 30.1543 0.447667 -1.48911
head 18.4155 0.393197 -1.16344
rclavicle -1.84415e-013 -1.00914e-014
rhumerus -66.0155 -2.51996 -69.6862
rradius 55.6856
rwrist 8.76943
rhand -10.036 -6.39768
rfingers 7.12502
rthumb 15.949 -35.761
lclavicle -1.84415e-013 -1.00914e-014
lhumerus -23.7547 -26.9558 88.7573
lradius 96.2091
lwrist -23.2333
lhand -15.9583 5.89569
lfingers 7.12502
lthumb 10.2403 35.6264
rfemur -70.6048 -7.82309 17.8333
rtibia 71.7747
rfoot -5.71528 -22.1143
rtoes -16.2025
lfemur 18.8878 -9.77573 -28.2303
ltibia -8.26944e-014
lfoot 20.5867 2.94769
ltoes -15.7941
288
root 1.60508 14.4911 -6.52 -154.754 -7.34531 171.022
lowerback 0.625023 -7.38534 -8.61066
upperback 1.25532 -9.92775 2.21853
thorax 2.81718 -5.16421 6.73438
lowerneck -42.759 2.06827 4.21692
upperneck 29.2923 1.14729 -2.3061
head 17.9117 0.58249 -1.46223
rclavicle 2.55997e-014 -2.11209e-016
rhumerus -65.6779 -1.94336 -70.341
rradius 57.3595
rwrist 8.09691
rhand -10.3431 -6.36014
rfingers 7.12502
rthumb 15.6532 -35.7469
lclavicle 2.55997e-014 -2.11209e-016
lhumerus -24.7749 -26.984 88.6817
lradius 96.3291
lwrist -23.0582
lhand -16.1833 6.02341
lfingers 7.12502
lthumb 10.0233 35.7647
rfemur -69.4643 -7.91237 18.4506
rtibia 71.2673
rfoot -10.3457 -24.0702
rtoes -17.2989
lfemur 18.5819 -9.75013 -27.9442
ltibia 3.18055e-015
lfoot 22.6189 1.64717
ltoes -15.6486
289
root 1.62322 14.4621 -6.76652 -154.128 -7.24327 171.016
lowerback 0.315841 -7.59897 -8.34118
upperback 1.02132 -10.1838 2.32044
thorax 2.76277 -5.27356 6.64906
lowerneck -42.6785 2.42498 4.53416
upperneck 28.7499 1.66218 -2.86655
head 17.6471 0.713577 -1.63611
rclavicle -1.0256e-013 1.47598e-014
rhumerus -65.1378 -1.36805 -71.0424
rradius 59.0255
rwrist 7.28426
rhand -10.8579 -6.08562
rfingers 7.12502
rthumb 15.1574 -35.5105
lclavicle -1.0256e-013 1.47598e-014
lhumerus -25.8485 -26.9768 88.636
lradius 96.4312
lwrist -23.1165
lhand -16.4235 6.03723
lfingers 7.12502
lthumb 9.7916 35.7896
rfemur -68.1853 -7.89978 18.885
rtibia 70.8506
rfoot -13.6402 -25.4156
rtoes -19.1105
lfemur 18.3859 -9.64523 -27.7088
ltibia -4.77083e-014
lfoot 24.8363 0.533387
ltoes -15.089
290
root 1.64422 14.452 -7.02563 -153.486 -7.14223 171.162
lowerback -0.0335304 -7.74942 -7.93976
upperback 0.742925 -10.3541 2.44595
thorax 2.64837 -5.33474 6.52262
lowerneck -42.4717 2.77715 4.85068
upperneck 28.325 2.16068 -3.37166
head 17.4283 0.85442 -1.78715
rclavicle 8.43344e-014 -2.39039e-014
rhumerus -64.7343 -0.878024 -71.7246
rradius 60.8452
rwrist 6.66635
rhand -11.3315 -6.10374
rfingers 7.12502
rthumb 14.7012 -35.5625
lclavicle 8.43344e-014 -2.39039e-014
lhumerus -26.9383 -27.0891 88.6765
lradius 96.2594
lwrist -23.0969
lhand -16.7163 6.10533
lfingers 7.12502
lthumb 9.50906 35.8708
rfemur -66.95 -7.57812 19.1822
rtibia 70.3398
rfoot -16.4891 -25.8777
rtoes -18.047
lfemur 18.1091 -9.48365 -27.2933
ltibia 4.45278e-014
lfoot 27.2229 -0.645928
ltoes -13.9235
291
root 1.67004 14.4433 -7.28111 -152.91 -6.8359 171.423
lowerback -0.312521 -7.79915 -7.64269
upperback 0.535118 -10.4 2.62089
thorax 2.5745 -5.34287 6.51757
lowerneck -42.182 3.26062 5.41154
upperneck 27.8071 2.79653 -4.15057
head 17.1756 1.03391 -2.06568
rclavicle 3.04638e-014 -1.76421e-014
rhumerus -64.0809 -0.358214 -72.4511
rradius 62.4854
rwrist 6.00559
rhand -11.8676 -5.82533
rfingers 7.12502
rthumb 14.1846 -35.321
lclavicle 3.04638e-014 -1.76421e-014
lhumerus -27.8021 -27.1192 88.6439
lradius 95.9811
lwrist -23.003
lhand -16.5473 6.09149
lfingers 7.12502
lthumb 9.67213 35.8494
rfemur -66.0207 -6.87379 19.4838
rtibia 69.8937
rfoot -18.3747 -26.8881
rtoes -17.4944
lfemur 17.8367 -9.08629 -26.8264
ltibia -4.77083e-014
lfoot 29.7487 -1.88371
ltoes -12.0874
292
root 1.69575 14.4222 -7.53291 -152.477 -6.42921 171.635
lowerback -0.507241 -7.76024 -7.41484
upperback 0.367613 -10.3345 2.69832
thorax 2.47037 -5.29652 6.46786
lowerneck -42.0016 3.50937 5.56513
upperneck 27.2576 3.15479 -4.44242
head 16.9009 1.14015 -2.12182
rclavicle 2.66123e-014 -2.82771e-014
rhumerus -63.4228 0.0519482 -73.2164
rradius 64.1741
rwrist 5.6588
rhand -12.3202 -5.56864
rfingers 7.12502
rthumb 13.7484 -35.0944
lclavicle 2.66123e-014 -2.82771e-014
lhumerus -28.673 -27.4941 88.6758
lradius 95.535
lwrist -22.1832
lhand -16.6294 6.21791
lfingers 7.12502
lthumb 9.59297 35.9795
rfemur -65.1537 -6.12089 19.7103
rtibia 69.6573
rfoot -20.5904 -27.8429
rtoes -16.4435
lfemur 17.7687 -8.59639 -26.496
ltibia -3.18055e-015
lfoot 32.1716 -3.47187
ltoes -10.8172
293
root 1.71595 14.4009 -7.78932 -152.193 -5.87899 171.913
lowerback -0.55737 -7.62191 -7.18548
upperback 0.257898 -10.1467 2.72149
thorax 2.3156 -5.1896 6.38834
lowerneck -41.9279 3.90508 6.0665
upperneck 26.9922 3.60469 -4.99184
head 16.8148 1.28263 -2.33451
rclavicle -4.19436e-014 2.16178e-014
rhumerus -62.6559 0.372307 -74.0142
rradius 65.7756
rwrist 5.45462
rhand -12.5488 -5.23605
rfingers 7.12502
rthumb 13.5281 -34.7766
lclavicle -4.19436e-014 2.16178e-014
lhumerus -29.6288 -27.6638 88.8256
lradius 94.922
lwrist -22.1128
lhand -16.7476 6.32144
lfingers 7.12502
lthumb 9.47892 36.0883
rfemur -64.4594 -5.38489 20.0153
rtibia 69.7083
rfoot -21.469 -28.4459
rtoes -15.9259
lfemur 17.8807 -7.92988 -26.2161
ltibia 3.49861e-014
lfoot 34.8326 -4.82419
ltoes -7.80788
294
root 1.73382 14.3604 -8.02703 -152.148 -5.11144 172.216
lowerback -0.353708 -7.37022 -6.98772
upperback 0.134982 -9.82351 2.65872
thorax 1.9747 -5.00815 6.2847
lowerneck -41.2646 4.15824 6.32191
upperneck 26.4332 3.94083 -5.28716
head 16.4607 1.40171 -2.4101
rclavicle -2.8548e-013 1.64991e-014
rhumerus -61.8405 0.75199 -74.9245
rradius 67.2832
rwrist 4.93566
rhand -12.8532 -4.63942
rfingers 7.12502
rthumb 13.2347 -34.1993
lclavicle -2.8548e-013 1.64991e-014
lhumerus -30.5922 -27.8339 89.008
lradius 94.0535
lwrist -21.9925
lhand -16.5914 6.32633
lfingers 7.12502
lthumb 9.62962 36.0862
rfemur -63.8331 -4.58418 20.2636
rtibia 70.1778
rfoot -22.378 -28.7905
rtoes -16.499
lfemur 13.4891 -6.92632 -25.9331
ltibia 9.27817
lfoot 33.8187 -3.82789
ltoes -4.76926
